<svg class="icon" style="width: 1em;height: 1em;vertical-align: middle;fill: currentColor;overflow: hidden;" viewBox="0 0 1024 1024" version="1.1" xmlns="http://www.w3.org/2000/svg" p-id="6571"><path d="M369 530c-24.4 0-44 43-44 96s19.6 96 44 96c24.2 0 44-43 44-96s-19.8-96-44-96zM655 530c-24.4 0-44 43-44 96s19.8 96 44 96 44-43 44-96-19.6-96-44-96z" fill="#617FEE" p-id="6572"></path><path d="M512 32C247 32 32 246.8 32 512c0 265 215 480 480 480 265.2 0 480-215 480-480 0-265.2-215-480-480-480z m0 846.6c-193.4 0-350.2-156.8-350.2-350.2 0-8.8 0.6-17.4 1.4-26 54.2-176.4 185.4-169.8 185.4-169.8 88.8 75.4 153 67 163.8 64.8 11 2.2 75.2 10.6 163.8-64.8 0 0 129.4-6.4 184.2 165.8 0.8 10 1.6 19.8 1.6 30 0.2 193.4-156.6 350.2-350 350.2z" fill="#617FEE" p-id="6573"></path></svg>